<svg width="500" height="100" viewBox="0 0 500 100" xmlns="http://www.w3.org/2000/svg">
    <!-- Letter O -->
    <rect x="10" y="10" width="80" height="80" fill="black"/>
    <rect x="30" y="30" width="40" height="40" fill="white"/>
    <!-- Letter A -->
    <polygon points="110,90 140,10 170,90" fill="black"/>
    <rect x="130" y="50" width="20" height="40" fill="white"/>
    <!-- Letter S -->
    <path d="M 210 10 Q 250 10, 250 50 Q 250 90, 210 90 Q 210 90, 210 50 Q 210 10, 250 10" fill="black"/>
    <!-- Letter I -->
    <rect x="290" y="10" width="20" height="80" fill="black"/>
    <!-- Letter S (Same as previous S) -->
    <path d="M 360 10 Q 400 10, 400 50 Q 400 90, 360 90 Q 360 90, 360 50 Q 360 10, 400 10" fill="black"/>
</svg>